<?xml version="1.0" standalone="no"?>
<!DOCTYPE svg PUBLIC "-//W3C//DTD SVG 20010904//EN"
 "http://www.w3.org/TR/2001/REC-SVG-20010904/DTD/svg10.dtd">
<svg version="1.0" xmlns="http://www.w3.org/2000/svg"
 width="518.000000pt" height="592.000000pt" viewBox="0 0 518.000000 592.000000"
 preserveAspectRatio="xMidYMid meet">

<g transform="translate(0.000000,592.000000) scale(0.100000,-0.100000)"
fill="#000000" stroke="none">
<path d="M4921 5916 c2 -2 29 -25 59 -51 30 -26 88 -79 128 -118 l72 -71 0
122 0 122 -132 0 c-72 0 -129 -2 -127 -4z"/>
<path d="M787 5353 c-12 -11 -8 -23 8 -23 8 0 15 7 15 15 0 16 -12 20 -23 8z"/>
<path d="M1560 5335 c0 -22 -4 -25 -35 -25 -28 0 -38 -5 -46 -24 -14 -30 -5
-72 19 -85 9 -5 32 -6 50 -4 l32 5 0 79 c0 46 -4 79 -10 79 -5 0 -10 -11 -10
-25z m-12 -61 c13 -24 3 -54 -18 -54 -21 0 -33 25 -25 51 8 23 31 25 43 3z"/>
<path d="M1620 5345 c0 -8 7 -15 15 -15 8 0 15 7 15 15 0 8 -7 15 -15 15 -8 0
-15 -7 -15 -15z"/>
<path d="M2390 5331 c0 -25 -3 -28 -25 -23 -34 6 -55 -14 -55 -54 0 -38 25
-68 49 -58 9 4 26 6 39 5 21 -1 22 3 22 79 0 64 -3 80 -15 80 -10 0 -15 -10
-15 -29z m-12 -50 c21 -13 11 -56 -13 -56 -20 0 -31 25 -21 51 6 16 15 17 34
5z"/>
<path d="M2678 5353 c-3 -7 -3 -80 1 -135 1 -10 7 -18 14 -18 9 0 12 9 10 28
-5 31 18 69 35 58 7 -4 12 -25 12 -47 0 -29 4 -39 16 -39 12 0 14 10 12 53
l-3 52 -35 1 c-23 0 -35 5 -36 15 -2 33 -4 39 -13 39 -6 0 -11 -3 -13 -7z"/>
<path d="M2817 5353 c-12 -11 -8 -23 8 -23 8 0 15 7 15 15 0 16 -12 20 -23 8z"/>
<path d="M2880 5326 c0 -8 -6 -17 -12 -20 -10 -5 -10 -7 0 -12 6 -3 12 -23 12
-44 0 -29 5 -42 20 -50 21 -11 40 -6 40 11 0 5 -7 9 -15 9 -10 0 -15 11 -15
35 0 24 5 35 15 35 8 0 15 5 15 10 0 6 -7 10 -15 10 -8 0 -15 7 -15 15 0 8 -7
15 -15 15 -8 0 -15 -6 -15 -14z"/>
<path d="M537 5303 c-17 -17 -5 -45 23 -56 17 -6 30 -15 30 -20 0 -5 -13 -7
-30 -3 -22 4 -30 2 -30 -8 0 -16 41 -29 63 -20 36 13 30 59 -9 68 -30 8 -32
28 -2 24 11 -2 23 3 25 10 5 13 -58 18 -70 5z"/>
<path d="M640 5229 c0 -64 3 -79 15 -79 9 0 15 10 15 26 0 21 4 24 20 19 34
-11 60 12 60 53 0 53 -9 61 -63 60 l-47 -1 0 -78z m78 45 c15 -27 3 -56 -22
-52 -24 4 -33 33 -16 53 16 19 27 19 38 -1z"/>
<path d="M780 5255 c0 -42 3 -55 15 -55 12 0 15 13 15 55 0 42 -3 55 -15 55
-12 0 -15 -13 -15 -55z"/>
<path d="M856 5295 c-9 -9 -16 -27 -16 -41 0 -26 32 -64 53 -64 22 0 51 26 43
39 -6 9 -11 9 -22 0 -22 -18 -46 -3 -42 28 3 25 7 28 36 25 24 -2 33 2 30 10
-7 20 -63 22 -82 3z"/>
<path d="M960 5300 c0 -5 9 -33 20 -61 21 -57 19 -69 -11 -69 -10 0 -19 -4
-19 -10 0 -5 14 -10 30 -10 17 0 30 1 30 3 0 1 14 35 30 76 35 85 34 81 16 81
-7 0 -20 -17 -28 -37 l-15 -38 -16 38 c-15 34 -37 51 -37 27z"/>
<path d="M1200 5229 c0 -64 3 -79 15 -79 9 0 15 9 15 25 0 21 4 24 23 20 34
-9 59 15 59 57 0 52 -7 58 -62 57 l-50 -2 0 -78z m78 45 c15 -27 3 -56 -22
-52 -24 4 -33 33 -16 53 16 19 27 19 38 -1z"/>
<path d="M1340 5261 c0 -58 18 -80 54 -63 17 7 27 7 35 -1 12 -12 12 -12 13
65 1 56 -16 59 -28 6 -12 -58 -38 -58 -42 0 -2 28 -8 42 -18 42 -10 0 -14 -13
-14 -49z"/>
<path d="M1620 5255 c0 -42 3 -55 15 -55 12 0 15 13 15 55 0 42 -3 55 -15 55
-12 0 -15 -13 -15 -55z"/>
<path d="M1680 5254 c0 -40 4 -54 14 -54 10 0 16 14 18 43 2 34 7 42 23 42 16
0 21 -8 23 -42 4 -55 32 -61 32 -7 0 58 -14 73 -65 72 l-45 -1 0 -53z"/>
<path d="M1827 5303 c-15 -15 -5 -22 23 -16 19 3 30 1 30 -6 0 -6 -13 -14 -30
-17 -32 -7 -48 -37 -30 -59 12 -14 27 -15 48 -1 7 4 19 3 26 -3 25 -21 28 0
10 87 -3 17 -11 22 -38 22 -18 0 -36 -3 -39 -7z m53 -62 c0 -5 -6 -14 -14 -20
-16 -13 -32 2 -21 19 8 12 35 13 35 1z"/>
<path d="M2057 5304 c-16 -16 -5 -25 23 -19 17 4 30 2 30 -3 0 -6 -13 -15 -30
-21 -22 -7 -30 -16 -30 -34 0 -26 24 -42 43 -30 6 4 25 6 41 5 23 -2 27 0 18
10 -6 7 -12 31 -14 53 -3 38 -5 40 -38 43 -20 2 -39 0 -43 -4z m57 -69 c-6
-16 -34 -21 -34 -7 0 13 11 22 26 22 8 0 11 -6 8 -15z"/>
<path d="M2180 5247 c0 -67 9 -68 25 -4 14 57 39 57 43 0 2 -30 8 -43 18 -43
12 0 14 11 12 53 l-3 52 -47 1 -48 1 0 -60z"/>
<path d="M2505 5259 c8 -28 16 -53 19 -56 12 -13 34 8 41 39 l8 33 10 -37 c16
-57 42 -51 57 13 12 50 7 76 -10 49 -6 -8 -10 -23 -10 -32 0 -33 -18 -27 -24
7 -9 46 -31 45 -47 -2 -7 -21 -13 -33 -15 -28 -1 6 -5 22 -8 38 -4 15 -13 27
-20 27 -12 0 -12 -8 -1 -51z"/>
<path d="M2810 5255 c0 -42 3 -55 15 -55 12 0 15 13 15 55 0 42 -3 55 -15 55
-12 0 -15 -13 -15 -55z"/>
<path d="M2969 5286 c-24 -52 14 -103 66 -90 37 9 32 32 -6 30 -18 0 -34 5
-36 12 -3 8 8 12 36 12 23 0 41 5 41 11 0 51 -80 71 -101 25z m66 -6 c4 -6 -5
-10 -20 -10 -15 0 -24 4 -20 10 3 6 12 10 20 10 8 0 17 -4 20 -10z"/>
<path d="M1094 5206 c3 -14 1 -28 -4 -31 -6 -4 -7 -11 -4 -17 10 -15 34 20 34
49 0 14 -6 23 -16 23 -12 0 -15 -6 -10 -24z"/>
<path d="M1943 5209 c3 -12 1 -29 -5 -36 -17 -20 -3 -26 16 -7 20 19 18 55 -3
62 -10 3 -12 -1 -8 -19z"/>
<path d="M2543 5046 c-19 -14 -20 -20 -11 -54 7 -24 8 -104 4 -228 -6 -184 -6
-191 14 -209 16 -15 26 -17 48 -9 25 9 28 15 40 104 10 82 16 98 41 124 45 45
54 29 49 -87 -5 -97 -4 -101 21 -129 22 -25 30 -28 52 -20 46 18 64 151 38
273 -19 88 -81 123 -149 84 -14 -8 -29 -14 -34 -15 -4 0 -5 30 -1 68 4 48 3
72 -7 85 -19 25 -78 32 -105 13z"/>
<path d="M1524 5016 c-52 -23 -111 -84 -131 -134 -25 -66 -23 -174 5 -229 52
-102 193 -142 308 -87 33 16 34 17 34 80 0 36 -4 64 -10 64 -5 0 -10 -3 -10
-7 0 -19 -70 -54 -107 -55 -45 0 -98 23 -113 51 -15 28 -12 116 4 156 29 68
114 91 171 47 l30 -23 17 21 c21 26 23 69 6 92 -28 35 -147 49 -204 24z"/>
<path d="M2315 4911 c-51 -9 -101 -36 -115 -60 -5 -11 -10 -37 -10 -59 0 -50
32 -81 102 -97 38 -8 54 -17 57 -30 8 -45 -99 -64 -135 -24 l-19 21 -6 -38
c-9 -52 -4 -60 43 -79 90 -36 216 19 231 102 10 53 -25 94 -103 119 -41 13
-66 27 -68 37 -5 26 37 37 92 24 43 -10 50 -9 62 8 18 24 18 29 -3 53 -21 23
-71 32 -128 23z"/>
<path d="M3060 4914 c-94 -31 -137 -79 -147 -162 -12 -101 39 -194 113 -208
50 -9 150 0 168 15 11 9 16 29 15 65 0 28 -3 45 -6 38 -6 -16 -68 -42 -100
-42 -42 0 -93 35 -93 64 0 2 30 6 66 10 87 9 129 27 148 65 22 41 20 62 -6
101 -31 45 -106 70 -158 54z m75 -99 c0 -21 -29 -38 -82 -50 -40 -8 -44 9 -12
49 17 22 28 27 58 24 28 -2 36 -7 36 -23z"/>
<path d="M3713 4910 c-19 -8 -23 -17 -23 -52 0 -50 -21 -158 -31 -158 -4 0
-12 21 -18 48 -7 26 -19 71 -27 100 l-15 53 -51 -3 -52 -3 -13 -60 c-7 -33
-18 -80 -25 -104 -10 -39 -12 -42 -20 -22 -4 13 -11 55 -14 94 -9 99 -14 107
-73 107 -49 0 -79 -18 -61 -36 5 -5 16 -38 25 -74 38 -150 66 -230 88 -245 55
-38 91 -5 123 112 9 35 20 61 23 57 3 -3 17 -40 31 -82 28 -87 56 -111 108
-94 22 7 32 23 59 93 55 147 79 238 67 257 -13 19 -68 26 -101 12z"/>
<path d="M1886 4895 c-57 -20 -72 -38 -60 -72 12 -35 39 -41 67 -15 12 11 36
23 54 27 25 5 34 2 42 -14 18 -33 13 -38 -37 -45 -85 -11 -152 -69 -152 -131
0 -84 98 -136 163 -85 27 22 47 26 47 10 0 -6 11 -15 25 -22 32 -14 78 4 94
38 14 32 14 33 -8 27 -28 -7 -33 20 -19 114 11 76 10 87 -6 118 -33 60 -121
82 -210 50z m102 -222 c-3 -36 -5 -38 -40 -41 -35 -3 -38 -1 -38 22 0 27 33
56 63 56 15 0 18 -7 15 -37z"/>
<path d="M595 4761 c0 -27 3 -47 8 -44 4 2 7 24 7 49 0 24 -3 44 -7 44 -5 0
-8 -22 -8 -49z"/>
<path d="M621 4674 c0 -11 3 -14 6 -6 3 7 2 16 -1 19 -3 4 -6 -2 -5 -13z"/>
<path d="M4375 4601 c-6 -11 9 -23 19 -14 9 9 7 23 -3 23 -6 0 -12 -4 -16 -9z"/>
<path d="M4410 4570 c0 -5 12 -10 26 -10 14 0 23 4 19 10 -3 6 -15 10 -26 10
-10 0 -19 -4 -19 -10z"/>
<path d="M4177 4547 c-9 -31 -1 -67 14 -67 10 0 10 20 0 65 l-7 30 -7 -28z"/>
<path d="M4555 4550 c15 -48 50 -82 87 -85 10 0 48 -52 48 -65 0 -6 5 -8 10
-5 14 9 13 51 -2 78 -7 12 -14 23 -15 25 -1 2 -14 -5 -29 -15 -16 -10 -25 -12
-20 -5 4 8 -4 22 -24 39 -18 15 -39 33 -47 42 -14 13 -15 12 -8 -9z"/>
<path d="M680 4460 c0 -11 2 -20 4 -20 2 0 6 9 9 20 3 11 1 20 -4 20 -5 0 -9
-9 -9 -20z"/>
<path d="M4343 4466 c-13 -6 -23 -14 -23 -18 0 -12 6 -10 47 12 40 21 17 27
-24 6z"/>
<path d="M700 4374 c0 -8 5 -12 10 -9 6 3 10 10 10 16 0 5 -4 9 -10 9 -5 0
-10 -7 -10 -16z"/>
<path d="M3820 4376 c0 -25 22 -76 33 -76 8 0 8 3 0 11 -9 9 -6 16 10 30 16
12 19 21 11 29 -16 16 -54 21 -54 6z"/>
<path d="M4620 4345 c-8 -9 -8 -15 -2 -15 12 0 26 19 19 26 -2 2 -10 -2 -17
-11z"/>
<path d="M710 4340 c0 -5 5 -10 10 -10 6 0 10 5 10 10 0 6 -4 10 -10 10 -5 0
-10 -4 -10 -10z"/>
<path d="M3990 4320 c8 -5 22 -9 30 -9 10 0 8 3 -5 9 -27 12 -43 12 -25 0z"/>
<path d="M543 4285 c0 -22 2 -30 4 -17 2 12 2 30 0 40 -3 9 -5 -1 -4 -23z"/>
<path d="M721 4300 c1 -14 5 -36 9 -50 7 -23 8 -22 9 10 0 19 -4 42 -9 50 -8
12 -10 10 -9 -10z"/>
<path d="M4058 4283 c12 -8 22 -20 22 -25 0 -13 60 -72 66 -65 15 15 -67 107
-94 106 -14 0 -13 -3 6 -16z"/>
<path d="M4550 4258 c-24 -13 -50 -33 -58 -45 -20 -32 -2 -28 38 7 18 17 41
30 51 30 9 0 22 7 29 15 19 23 -7 19 -60 -7z"/>
<path d="M536 4214 c-4 -14 -5 -28 -3 -31 3 -2 8 8 11 23 4 14 5 28 3 31 -3 2
-8 -8 -11 -23z"/>
<path d="M264 4194 c-4 -10 -9 -22 -11 -26 -2 -5 0 -8 5 -8 10 0 24 41 17 48
-3 3 -8 -4 -11 -14z"/>
<path d="M742 4115 c-1 -55 -5 -111 -8 -125 -5 -21 -4 -22 6 -8 7 11 9 58 7
125 l-3 108 -2 -100z"/>
<path d="M4271 4165 c0 -17 4 -39 9 -50 7 -18 8 -18 15 7 5 18 2 34 -9 50
l-16 22 1 -29z"/>
<path d="M4530 4178 c0 -9 -5 -18 -12 -20 -12 -4 16 -93 37 -114 23 -24 71
-42 98 -37 40 8 44 23 6 23 -43 0 -99 21 -99 37 0 7 -3 13 -7 13 -11 0 -10 54
0 61 6 4 2 17 -7 30 -12 18 -16 19 -16 7z"/>
<path d="M4150 4164 c0 -8 5 -12 10 -9 6 4 8 11 5 16 -9 14 -15 11 -15 -7z"/>
<path d="M4042 4108 c2 -12 9 -23 16 -26 18 -6 15 35 -4 42 -11 4 -15 0 -12
-16z"/>
<path d="M227 4043 c-10 -97 -8 -161 3 -168 5 -3 7 13 4 42 -3 26 -1 76 4 110
5 34 6 67 2 73 -4 6 -10 -19 -13 -57z"/>
<path d="M506 4085 c-9 -26 -7 -32 5 -12 6 10 9 21 6 23 -2 3 -7 -2 -11 -11z"/>
<path d="M566 4083 c-6 -14 -5 -15 5 -6 7 7 10 15 7 18 -3 3 -9 -2 -12 -12z"/>
<path d="M4280 4069 c0 -5 5 -7 10 -4 6 3 10 8 10 11 0 2 -4 4 -10 4 -5 0 -10
-5 -10 -11z"/>
<path d="M4090 4043 c0 -10 7 -26 14 -36 12 -16 14 -16 20 -2 7 18 -10 55 -24
55 -6 0 -10 -8 -10 -17z"/>
<path d="M431 4034 c0 -11 3 -14 6 -6 3 7 2 16 -1 19 -3 4 -6 -2 -5 -13z"/>
<path d="M494 4027 c3 -14 2 -29 -4 -32 -5 -3 -10 -11 -10 -18 0 -18 29 26 30
45 0 9 -5 20 -11 24 -8 5 -10 -1 -5 -19z"/>
<path d="M4306 4021 c-12 -19 86 -111 115 -110 21 1 21 2 4 6 -24 6 -93 71
-104 97 -6 14 -10 16 -15 7z"/>
<path d="M462 3948 c-2 -63 1 -69 19 -37 7 13 7 19 1 15 -7 -4 -12 10 -15 36
-3 38 -4 36 -5 -14z"/>
<path d="M2460 3990 c-20 -6 -21 -8 -5 -8 11 0 29 3 40 8 25 11 -1 11 -35 0z"/>
<path d="M2430 3965 c-91 -22 -229 -64 -251 -75 -11 -6 -76 -34 -145 -61 -69
-27 -142 -60 -164 -74 -22 -14 -44 -25 -49 -25 -5 0 -15 -7 -22 -16 -12 -15
-5 -16 82 -9 78 6 99 4 110 -7 7 -8 24 -13 38 -10 18 2 22 1 13 -6 -11 -7 -11
-18 -3 -47 6 -22 7 -43 2 -49 -5 -6 -9 -23 -9 -38 0 -23 5 -28 24 -28 26 0 30
-10 12 -28 -9 -9 -9 -12 0 -12 7 0 12 5 12 10 0 6 28 10 63 11 97 1 108 10 48
39 -28 13 -51 27 -51 32 0 4 -8 16 -17 26 -46 46 -56 150 -20 202 32 48 147
107 243 126 98 19 171 12 284 -26 47 -16 105 -29 129 -29 57 0 121 -11 121
-20 0 -4 17 -17 38 -28 87 -50 182 -188 182 -265 0 -19 4 -28 9 -22 12 13 34
83 37 119 7 88 193 153 325 113 46 -13 113 -68 134 -109 23 -44 19 -106 -9
-134 -13 -13 -22 -26 -19 -29 3 -3 5 -29 5 -58 -1 -34 2 -48 7 -39 14 21 106
32 185 20 81 -11 92 -19 117 -77 20 -46 77 -135 91 -140 4 -2 8 -9 8 -16 0 -6
9 -18 20 -26 11 -8 20 -19 20 -25 0 -6 14 -27 31 -46 44 -49 68 -108 79 -192
11 -87 5 -148 -19 -215 -13 -34 -15 -49 -7 -46 17 7 57 -10 82 -34 30 -29 83
-161 89 -222 3 -29 7 -55 10 -60 11 -17 -8 -40 -43 -51 -21 -6 -41 -15 -46
-20 -37 -34 -88 37 -126 175 -20 71 -20 78 -6 127 22 72 21 73 -23 44 -21 -15
-53 -27 -70 -27 -34 -1 -36 -4 -20 -45 6 -15 15 -63 20 -107 8 -67 13 -81 35
-99 43 -34 95 -93 146 -170 27 -39 55 -79 63 -87 23 -27 29 -133 10 -192 -15
-44 -97 -217 -159 -333 -19 -36 -22 -99 -3 -93 13 5 101 165 116 213 6 17 24
71 41 120 18 50 38 131 46 180 8 50 22 131 29 180 24 146 19 228 -25 455 -53
271 -67 312 -168 513 -87 173 -104 223 -81 238 14 8 1 31 -51 89 l-31 35 5
-42 c6 -41 6 -41 -19 -30 -14 7 -25 18 -25 26 0 8 -3 11 -6 8 -4 -4 -20 4 -35
16 -16 12 -45 35 -66 52 -66 51 -106 103 -106 136 0 38 -64 97 -152 142 -53
27 -71 31 -150 32 -77 1 -112 8 -235 47 -150 48 -268 73 -499 108 -153 23
-157 23 -231 5z"/>
<path d="M2150 3945 c-56 -10 -66 -13 -40 -15 27 -2 19 -5 -34 -14 -38 -6 -71
-17 -74 -23 -2 -7 -14 -13 -26 -13 -12 0 -43 -13 -69 -30 -26 -16 -51 -30 -56
-30 -13 0 -35 -30 -27 -37 4 -4 10 -3 14 3 8 11 131 64 150 64 6 0 12 4 12 10
0 5 17 12 37 16 21 4 60 18 88 32 27 14 73 31 100 38 63 16 23 15 -75 -1z"/>
<path d="M721 3924 c0 -11 3 -14 6 -6 3 7 2 16 -1 19 -3 4 -6 -2 -5 -13z"/>
<path d="M432 3895 c0 -16 2 -22 5 -12 2 9 2 23 0 30 -3 6 -5 -1 -5 -18z"/>
<path d="M711 3884 c0 -11 3 -14 6 -6 3 7 2 16 -1 19 -3 4 -6 -2 -5 -13z"/>
<path d="M452 3855 c0 -16 2 -22 5 -12 2 9 2 23 0 30 -3 6 -5 -1 -5 -18z"/>
<path d="M150 3856 c0 -2 8 -10 18 -17 15 -13 16 -12 3 4 -13 16 -21 21 -21
13z"/>
<path d="M230 3838 c0 -15 5 -30 10 -33 13 -8 13 25 0 45 -8 12 -10 9 -10 -12z"/>
<path d="M690 3825 c0 -8 2 -15 4 -15 2 0 6 7 10 15 3 8 1 15 -4 15 -6 0 -10
-7 -10 -15z"/>
<path d="M190 3806 c0 -2 8 -10 18 -17 15 -13 16 -12 3 4 -13 16 -21 21 -21
13z"/>
<path d="M416 3774 c-4 -12 -2 -15 9 -11 20 8 29 -11 15 -28 -8 -10 -9 -15 -2
-15 18 0 24 39 8 55 -19 19 -22 19 -30 -1z"/>
<path d="M651 3734 c-6 -15 -9 -29 -7 -32 3 -2 10 8 16 23 14 36 7 43 -9 9z"/>
<path d="M406 3733 c-4 -9 -2 -21 4 -27 7 -7 10 -2 10 17 0 31 -5 34 -14 10z"/>
<path d="M350 3731 c0 -5 5 -13 10 -16 6 -3 10 -2 10 4 0 5 -4 13 -10 16 -5 3
-10 2 -10 -4z"/>
<path d="M96 3685 c4 -8 8 -15 10 -15 2 0 4 7 4 15 0 8 -4 15 -10 15 -5 0 -7
-7 -4 -15z"/>
<path d="M1595 3672 c-22 -9 -44 -22 -48 -29 -4 -7 -13 -13 -20 -13 -13 0 -82
-72 -91 -95 -4 -10 1 -15 14 -15 11 0 20 4 20 10 0 5 11 12 25 16 14 3 30 15
36 25 5 11 14 19 20 19 6 0 23 11 37 25 15 13 41 36 57 50 26 21 27 25 10 24
-11 -1 -38 -8 -60 -17z"/>
<path d="M286 3667 c3 -10 9 -15 12 -12 3 3 0 11 -7 18 -10 9 -11 8 -5 -6z"/>
<path d="M396 3658 c-3 -13 -1 -27 4 -32 7 -7 10 1 10 22 0 37 -5 41 -14 10z"/>
<path d="M2 3645 c0 -16 2 -22 5 -12 2 9 2 23 0 30 -3 6 -5 -1 -5 -18z"/>
<path d="M612 3650 c-7 -11 -8 -20 -3 -20 9 0 24 30 18 36 -1 2 -8 -6 -15 -16z"/>
<path d="M1614 3586 c-81 -60 -273 -265 -320 -341 -43 -70 -128 -165 -136
-153 -4 7 -5 22 -3 33 4 17 3 16 -6 -2 -7 -13 -16 -23 -20 -23 -26 0 -79 -132
-124 -305 -24 -93 -23 -122 3 -89 13 18 14 17 7 -11 -3 -16 -9 -93 -11 -170
-3 -77 -9 -185 -15 -240 -6 -55 -11 -111 -11 -125 0 -14 -4 -30 -9 -36 -19
-23 34 -283 86 -420 48 -129 85 -195 115 -205 29 -11 41 -28 65 -102 24 -76
163 -244 191 -233 8 3 14 1 14 -5 0 -5 6 -9 13 -7 7 2 59 -33 117 -78 58 -44
132 -99 165 -122 70 -47 231 -131 296 -154 24 -9 69 -25 99 -36 30 -11 87 -31
127 -43 40 -12 70 -25 68 -29 -8 -14 31 -39 75 -49 120 -27 408 -22 581 9 91
17 259 69 259 81 0 6 -9 7 -20 4 -11 -3 -20 -4 -20 0 0 9 203 101 283 128 51
17 64 7 20 -17 -23 -12 -25 -16 -11 -21 19 -8 59 11 145 69 62 41 81 63 43 51
-11 -4 -20 -2 -20 4 0 6 4 11 10 11 5 0 25 13 43 30 37 32 70 43 47 15 -20
-24 -5 -18 67 26 79 49 112 72 113 79 0 3 -19 6 -41 7 -73 3 -158 55 -160 97
-1 27 -37 -71 -38 -102 -1 -13 9 -32 22 -42 l22 -18 -30 -32 c-40 -43 -108
-76 -175 -85 -122 -16 -154 -22 -133 -24 16 -1 20 -6 16 -20 -7 -26 -116 -75
-151 -68 -16 3 -36 -2 -52 -13 -33 -23 -172 -88 -238 -111 -228 -79 -552 -57
-660 44 -25 24 -88 128 -84 140 1 4 -1 6 -6 5 -16 -6 -84 83 -110 144 -22 52
-26 78 -27 153 0 104 21 159 90 234 l40 44 -34 -18 c-20 -10 -54 -17 -80 -16
-81 1 -80 1 -70 35 5 17 9 42 8 56 0 20 -5 15 -26 -27 -13 -29 -36 -64 -49
-78 -13 -15 -22 -30 -19 -35 3 -5 1 -11 -5 -15 -19 -12 -10 -35 17 -48 69 -31
83 -69 82 -221 -1 -139 -3 -144 -42 -104 -20 20 -27 33 -19 36 21 7 13 22 -11
22 -13 0 -28 5 -34 11 -17 17 -118 23 -168 9 -80 -22 -120 -18 -155 15 -18 17
-38 42 -45 56 -12 22 -12 28 2 42 15 15 13 18 -28 35 -105 46 -208 100 -237
123 -34 29 -57 70 -76 134 -13 41 -13 43 14 58 15 9 31 13 35 9 5 -4 5 -1 1 6
-4 7 -1 12 7 12 8 0 17 6 20 14 4 10 -5 16 -31 21 -159 29 -283 232 -285 469
-1 159 44 297 123 376 23 23 40 43 38 44 -1 1 -15 10 -31 19 -15 10 -27 23
-27 29 0 6 -9 21 -19 32 -17 19 -18 30 -10 120 4 55 6 103 3 108 -3 4 -1 8 5
8 6 0 13 17 16 38 5 31 46 125 114 260 9 18 33 49 53 69 30 29 46 37 87 41 41
4 55 0 77 -17 15 -12 29 -30 30 -39 1 -9 7 -59 14 -111 17 -136 4 -295 -33
-383 -20 -47 -65 -98 -88 -98 -10 0 -19 -4 -19 -8 0 -11 83 -32 130 -32 30 0
46 -7 69 -29 35 -35 51 -62 51 -93 1 -17 4 -13 15 16 25 70 109 136 155 121
30 -9 58 11 78 58 13 29 16 49 11 65 -5 12 -5 30 0 40 5 9 19 41 31 69 13 29
34 62 47 74 29 28 29 53 1 67 -13 6 -38 21 -56 33 l-34 22 4 -29 c1 -16 10
-34 18 -41 11 -9 11 -12 2 -13 -8 0 -10 -8 -6 -24 3 -13 1 -27 -5 -30 -6 -4
-11 -17 -11 -29 0 -18 -2 -19 -10 -7 -8 13 -10 13 -10 -1 0 -9 -7 -22 -15 -29
-9 -7 -14 -19 -11 -27 3 -7 -5 -23 -18 -36 -12 -12 -34 -47 -48 -77 -34 -71
-65 -99 -108 -100 -51 -2 -98 10 -104 25 -3 8 0 72 5 143 9 107 8 146 -5 221
-21 120 -20 143 8 237 19 63 21 80 10 82 -8 2 -14 10 -14 18 0 8 -5 12 -11 9
-7 -5 -8 5 -3 32 4 21 11 40 15 41 5 2 9 10 9 18 0 8 7 14 16 14 9 0 29 9 45
21 l29 21 35 -21 c19 -11 35 -16 35 -10 0 5 13 3 29 -5 25 -13 57 -66 52 -88
0 -5 8 -8 19 -8 11 0 20 -4 20 -10 0 -5 -5 -10 -11 -10 -8 0 -9 -4 0 -13 6 -8
8 -16 5 -19 -2 -3 2 -8 11 -11 10 -5 15 0 15 13 0 10 20 48 43 83 l44 65 -56
4 c-76 6 -168 53 -193 99 -20 36 -17 70 8 123 8 16 12 31 10 33 -2 2 -30 -16
-62 -41z m446 -2657 c0 -6 -4 -7 -10 -4 -5 3 -10 11 -10 16 0 6 5 7 10 4 6 -3
10 -11 10 -16z m-6 -84 c20 -30 11 -55 -10 -28 -12 16 -19 53 -10 53 2 0 11
-11 20 -25z"/>
<path d="M2140 3626 c0 -2 7 -7 16 -10 8 -3 12 -2 9 4 -6 10 -25 14 -25 6z"/>
<path d="M5139 3588 c-114 -148 -283 -229 -593 -282 -82 -14 -150 -27 -152
-29 -2 -2 23 -57 56 -123 111 -223 174 -458 189 -701 45 -737 -306 -1405 -929
-1769 -324 -189 -675 -274 -1077 -261 -335 11 -581 76 -883 233 -207 108 -357
226 -528 415 -57 63 -107 119 -112 125 -28 37 -119 175 -135 207 l-20 37 -85
0 c-162 0 -387 57 -530 134 -69 36 -192 121 -232 158 -17 15 -32 28 -34 28 -2
0 -20 16 -39 36 l-35 36 0 -916 0 -916 2590 0 2590 0 0 1815 c0 998 -2 1815
-4 1815 -2 0 -19 -19 -37 -42z"/>
<path d="M10 3597 c0 -9 4 -17 9 -17 5 0 13 -10 17 -22 7 -23 21 -38 37 -38 4
0 -4 17 -19 38 -41 55 -44 58 -44 39z"/>
<path d="M372 3580 c0 -14 2 -19 5 -12 2 6 2 18 0 25 -3 6 -5 1 -5 -13z"/>
<path d="M567 3573 c-11 -13 -17 -26 -14 -29 2 -3 12 7 21 22 23 33 17 39 -7
7z"/>
<path d="M401 3574 c0 -11 3 -14 6 -6 3 7 2 16 -1 19 -3 4 -6 -2 -5 -13z"/>
<path d="M11 3554 c0 -11 3 -14 6 -6 3 7 2 16 -1 19 -3 4 -6 -2 -5 -13z"/>
<path d="M126 3549 c5 -13 8 -44 7 -69 -1 -39 0 -41 8 -20 11 28 3 97 -13 106
-7 4 -7 -2 -2 -17z"/>
<path d="M333 3490 c0 -36 2 -50 4 -32 2 17 2 47 0 65 -2 17 -4 3 -4 -33z"/>
<path d="M412 3530 c0 -14 2 -19 5 -12 2 6 2 18 0 25 -3 6 -5 1 -5 -13z"/>
<path d="M380 3531 c0 -6 4 -13 10 -16 6 -3 7 1 4 9 -7 18 -14 21 -14 7z"/>
<path d="M71 3502 c-1 -7 11 -25 26 -40 19 -19 25 -22 20 -9 -4 10 -7 23 -7
28 0 5 -6 9 -14 9 -8 0 -17 6 -19 13 -4 9 -6 9 -6 -1z"/>
<path d="M162 3490 c0 -14 2 -19 5 -12 2 6 2 18 0 25 -3 6 -5 1 -5 -13z"/>
<path d="M2462 3487 c37 -13 85 -36 107 -50 41 -27 71 -19 35 9 -57 43 -88 56
-147 60 l-62 4 67 -23z"/>
<path d="M3088 3479 c-18 -50 -16 -62 14 -70 42 -11 49 9 22 60 l-24 44 -12
-34z"/>
<path d="M1972 3467 c-16 -19 -33 -67 -24 -67 16 0 64 59 58 69 -9 15 -21 14
-34 -2z"/>
<path d="M90 3411 c0 -6 4 -13 10 -16 6 -3 7 1 4 9 -7 18 -14 21 -14 7z"/>
<path d="M135 3410 c3 -5 1 -10 -6 -10 -7 0 -2 -9 10 -19 13 -11 20 -24 17
-30 -3 -5 3 -7 14 -4 25 7 34 19 20 28 -5 3 -10 1 -10 -6 0 -8 -4 -8 -15 1 -8
7 -15 21 -15 31 0 11 -5 19 -11 19 -5 0 -7 -4 -4 -10z"/>
<path d="M382 3390 c0 -19 2 -27 5 -17 2 9 2 25 0 35 -3 9 -5 1 -5 -18z"/>
<path d="M434 3396 c-3 -9 -10 -13 -15 -10 -5 3 -6 -2 -3 -11 6 -14 9 -13 21
5 8 12 12 24 9 27 -3 3 -8 -2 -12 -11z"/>
<path d="M1286 3388 c-32 -24 -56 -72 -49 -98 4 -15 13 -9 49 28 24 26 44 53
44 60 0 6 0 15 1 19 1 15 -17 12 -45 -9z"/>
<path d="M211 3374 c0 -11 3 -14 6 -6 3 7 2 16 -1 19 -3 4 -6 -2 -5 -13z"/>
<path d="M306 3365 c-9 -26 -7 -32 5 -12 6 10 9 21 6 23 -2 3 -7 -2 -11 -11z"/>
<path d="M250 3351 c0 -6 -21 -13 -46 -17 l-45 -6 37 -27 c24 -17 32 -27 21
-29 -9 -2 -14 -13 -13 -26 1 -21 26 -27 26 -6 0 5 -6 11 -12 13 -8 4 -7 6 3 6
9 1 20 8 23 17 9 22 8 24 -8 18 -7 -3 -16 2 -20 11 -4 11 2 19 19 25 21 8 36
30 20 30 -3 0 -5 -4 -5 -9z"/>
<path d="M3260 3342 c0 -12 54 -94 81 -123 19 -21 34 -26 75 -27 l51 -1 12 52
c6 28 19 59 28 69 22 25 13 30 -22 12 -44 -23 -134 -20 -179 5 -41 23 -46 25
-46 13z"/>
<path d="M120 3295 c0 -9 6 -12 15 -9 8 4 15 10 15 15 0 5 -7 9 -15 9 -8 0
-15 -7 -15 -15z"/>
<path d="M275 3279 c-4 -6 -5 -12 -2 -15 2 -3 7 2 10 11 7 17 1 20 -8 4z"/>
<path d="M376 3249 c-4 -23 -5 -44 -2 -46 2 -2 7 14 11 37 4 23 5 43 2 46 -2
3 -7 -14 -11 -37z"/>
<path d="M20 3276 c0 -12 79 -49 100 -48 17 1 21 -1 12 -7 -11 -7 -10 -9 3
-14 9 -4 13 -3 10 3 -3 6 -1 10 4 10 6 0 11 -4 11 -10 0 -5 9 -19 20 -30 11
-11 20 -15 20 -10 0 6 -13 24 -30 40 -32 31 -36 40 -19 40 6 0 17 7 25 15 14
13 14 15 0 15 -9 0 -16 -4 -16 -9 0 -9 -54 -31 -74 -31 -6 1 0 7 14 15 24 14
24 14 -11 8 -22 -3 -39 -1 -43 6 -7 10 -26 16 -26 7z"/>
<path d="M545 3273 c11 -3 23 -10 26 -15 3 -5 10 -3 17 4 8 10 2 13 -26 14
-21 1 -28 0 -17 -3z"/>
<path d="M425 3230 c-3 -5 -2 -10 4 -10 5 0 13 5 16 10 3 6 2 10 -4 10 -5 0
-13 -4 -16 -10z"/>
<path d="M544 3230 c-5 -5 -29 -11 -52 -12 -23 -1 -42 -4 -42 -8 0 -4 21 -5
46 -2 37 3 45 1 40 -9 -4 -8 0 -5 8 5 22 27 22 48 0 26z"/>
<path d="M3567 3234 c-10 -11 3 -24 24 -24 10 0 19 7 19 15 0 15 -31 21 -43 9z"/>
<path d="M245 3213 c-9 -20 -7 -54 3 -65 4 -4 8 13 8 38 2 48 0 53 -11 27z"/>
<path d="M2836 3183 c-18 -21 -25 -37 -19 -41 5 -4 17 -20 25 -36 15 -29 15
-28 21 40 3 38 4 69 4 70 -1 0 -15 -15 -31 -33z"/>
<path d="M420 3190 c-8 -5 -12 -12 -9 -15 4 -3 12 1 19 10 14 17 11 19 -10 5z"/>
<path d="M356 3165 c-3 -9 -6 -26 -5 -38 1 -14 4 -9 9 13 9 37 7 52 -4 25z"/>
<path d="M500 3155 c-13 -14 -22 -27 -19 -29 2 -2 14 10 27 25 29 36 24 38 -8
4z"/>
<path d="M311 3124 c0 -11 3 -14 6 -6 3 7 2 16 -1 19 -3 4 -6 -2 -5 -13z"/>
<path d="M337 3083 c5 -12 2 -15 -10 -10 -14 5 -15 4 -4 -13 6 -11 13 -16 15
-10 2 5 11 10 20 10 14 0 14 2 3 9 -7 5 -10 14 -7 20 4 6 1 11 -8 11 -10 0
-13 -6 -9 -17z"/>
<path d="M2320 3069 c-47 -17 -94 -33 -105 -36 -22 -5 -62 -57 -57 -74 1 -6
-1 -8 -5 -6 -12 8 -48 -22 -38 -30 4 -5 10 -2 12 5 3 6 11 12 18 12 18 0 78
32 88 47 13 21 142 73 181 73 24 0 140 -56 155 -74 19 -23 121 -77 131 -71 16
10 11 28 -6 21 -18 -7 -78 44 -99 84 -14 27 -126 80 -168 80 -12 -1 -60 -15
-107 -31z"/>
<path d="M430 3069 c0 -5 5 -7 10 -4 6 3 10 8 10 11 0 2 -4 4 -10 4 -5 0 -10
-5 -10 -11z"/>
<path d="M393 3025 c0 -8 4 -12 9 -9 4 3 8 9 8 15 0 5 -4 9 -8 9 -5 0 -9 -7
-9 -15z"/>
<path d="M2901 2993 c8 -10 18 -21 22 -24 14 -10 -19 -64 -48 -77 -32 -15 -65
-16 -65 -2 0 6 -5 10 -11 10 -5 0 -7 -4 -4 -10 3 -5 1 -10 -5 -10 -6 0 -13 7
-17 16 -4 11 -8 12 -13 4 -5 -8 -12 -7 -23 5 -9 9 -22 13 -28 9 -8 -5 -6 -11
7 -21 10 -7 37 -31 60 -53 l41 -40 54 27 c41 20 69 27 114 27 59 -1 189 -36
200 -55 4 -5 24 -9 46 -9 52 0 130 -42 193 -102 28 -27 52 -48 54 -48 2 0 2
11 0 25 -3 14 -1 25 3 25 5 0 9 -6 9 -12 0 -7 8 -2 16 12 25 39 95 70 159 70
69 0 129 -26 186 -80 23 -22 44 -38 47 -36 7 8 -31 108 -55 144 -12 18 -33 42
-48 53 -14 11 -25 26 -25 33 0 7 -6 20 -13 30 -13 18 -16 17 -58 -10 -121 -77
-212 -100 -347 -91 -135 10 -261 62 -394 164 -60 45 -79 54 -57 26z"/>
<path d="M360 2980 c-9 -6 -10 -10 -3 -10 6 0 15 5 18 10 8 12 4 12 -15 0z"/>
<path d="M232 2949 c-24 -17 -41 -33 -38 -36 2 -3 11 0 18 6 84 68 92 81 20
30z"/>
<path d="M285 2930 c-21 -16 -42 -30 -46 -30 -5 0 -9 -5 -9 -11 0 -10 86 47
96 63 9 15 -3 8 -41 -22z"/>
<path d="M60 2845 c7 -9 15 -13 17 -11 7 7 -7 26 -19 26 -6 0 -6 -6 2 -15z"/>
<path d="M2760 2775 c7 -8 17 -15 22 -15 6 0 5 7 -2 15 -7 8 -17 15 -22 15 -6
0 -5 -7 2 -15z"/>
<path d="M2860 2662 c0 -53 -21 -124 -46 -158 -26 -35 -79 -64 -118 -64 -34 0
-92 30 -134 69 -59 55 -165 90 -263 89 -36 -1 -72 3 -80 8 -27 16 -52 16 -45
-2 3 -8 6 -23 7 -32 1 -11 3 -9 7 6 6 20 9 21 25 10 21 -16 13 -50 -9 -41 -10
4 -14 -3 -14 -25 0 -17 3 -38 6 -46 5 -14 9 -13 28 7 12 14 37 27 60 30 36 6
37 5 22 -12 -26 -29 -19 -45 10 -22 18 14 31 18 43 12 9 -5 39 -11 66 -14 28
-3 97 -17 155 -30 121 -29 203 -39 194 -25 -4 6 1 8 12 5 59 -18 94 -17 169 3
44 12 81 24 83 25 2 2 -16 12 -41 23 -53 23 -84 65 -96 125 -4 24 -15 55 -24
68 l-17 23 0 -32z"/>
<path d="M977 2657 c-4 -10 -7 -31 -6 -45 l0 -27 10 25 c5 13 8 33 7 45 -3 19
-4 19 -11 2z"/>
<path d="M3503 2579 c-7 -7 -13 -35 -13 -63 0 -35 -9 -68 -30 -112 -35 -71
-47 -83 -82 -86 -19 -2 -24 -6 -20 -18 5 -12 2 -12 -21 3 l-27 17 11 -27 c5
-15 15 -33 21 -40 5 -7 8 -20 4 -28 -3 -8 -1 -15 4 -15 6 0 10 -5 10 -11 0 -5
-4 -7 -10 -4 -5 3 -18 2 -27 -4 -16 -9 -16 -11 7 -19 27 -10 50 -5 62 12 5 8
11 7 20 -2 6 -6 19 -12 28 -12 10 0 36 -13 58 -30 51 -36 56 -37 50 -5 -3 14
-1 28 3 31 5 3 9 -5 9 -16 0 -16 5 -20 15 -16 10 3 15 -1 15 -13 0 -11 -5 -21
-12 -23 -8 -3 -13 -43 -15 -123 -3 -127 -16 -165 -53 -165 -11 0 -20 -4 -20
-9 0 -10 61 -61 73 -61 3 0 9 26 13 58 3 31 20 94 35 139 16 45 29 88 29 95 0
19 -23 68 -32 68 -5 0 -8 9 -8 19 0 11 -4 23 -10 26 -5 3 -10 13 -10 21 0 8 4
13 9 10 5 -3 14 8 20 25 11 31 31 32 31 1 0 -13 3 -12 15 5 13 19 12 28 -10
89 -14 38 -26 83 -27 99 -2 42 -15 64 -59 105 -23 21 -39 46 -41 63 -2 23 -5
26 -15 16z"/>
<path d="M3960 2260 c-7 -17 -20 -35 -29 -40 -11 -7 3 -9 47 -10 68 0 67 -1
28 53 -25 34 -31 34 -46 -3z"/>
<path d="M1538 2248 c-9 -13 -38 -49 -65 -79 -53 -59 -60 -72 -93 -171 -23
-72 -20 -108 10 -108 11 0 31 -5 45 -12 33 -15 56 2 35 27 -11 13 -9 24 10 65
22 47 24 48 59 44 67 -9 85 -15 73 -23 -7 -4 8 -14 38 -25 28 -10 50 -22 50
-26 0 -9 74 -40 97 -40 9 0 0 11 -23 28 -21 16 -53 44 -69 63 -48 54 -126 176
-129 201 -2 13 -6 30 -9 38 -3 8 -7 21 -9 29 -3 9 -9 6 -20 -11z"/>
<path d="M2263 2238 c-5 -13 -7 -34 -3 -48 l7 -25 5 25 c5 24 5 24 7 2 0 -13
6 -20 11 -17 6 3 10 3 9 -2 -1 -16 -81 -73 -103 -73 -32 0 -66 -11 -66 -21 0
-5 9 -9 19 -9 34 0 51 -12 51 -35 0 -38 18 -39 40 -1 20 33 47 55 98 83 13 7
55 13 95 14 40 1 88 6 109 12 53 14 80 3 112 -45 26 -39 28 -49 23 -108 -5
-73 -24 -118 -83 -205 -45 -66 -181 -201 -257 -255 -53 -38 -48 -48 16 -32 98
25 106 24 127 -11 18 -30 20 -30 20 -9 0 26 53 82 76 82 10 0 14 -14 14 -48 0
-26 4 -62 10 -81 5 -18 12 -67 14 -108 6 -73 5 -74 -17 -67 -55 17 -68 25 -79
50 l-12 25 -13 -43 c-17 -56 -18 -52 22 -71 20 -9 38 -24 41 -32 4 -8 12 -15
18 -15 7 0 31 -16 53 -34 39 -34 89 -58 146 -70 31 -7 35 6 9 32 -9 9 -23 35
-29 57 -7 22 -20 64 -29 93 -24 76 -15 189 16 214 26 21 23 29 -11 30 -40 1
-108 40 -129 73 -28 45 -25 84 13 155 31 61 119 160 141 160 6 0 29 5 51 11
l39 11 -38 13 c-22 8 -43 20 -48 27 -12 19 1 89 22 119 l19 26 -32 30 c-54 52
-70 55 -238 58 -95 2 -165 8 -179 15 -28 15 -60 47 -60 60 0 18 -17 10 -27
-12z"/>
<path d="M20 2210 c-6 -12 -9 -24 -7 -27 3 -2 11 5 17 17 6 12 9 24 7 27 -3 2
-11 -5 -17 -17z"/>
<path d="M3083 2192 c-8 -5 -8 -12 2 -25 11 -15 19 -16 47 -8 18 5 25 10 15
10 -10 1 -20 8 -23 16 -7 16 -22 19 -41 7z"/>
<path d="M3830 2191 c-8 -6 -17 -8 -21 -5 -4 2 -11 0 -14 -6 -4 -7 -23 -8 -51
-4 -44 6 -51 1 -35 -25 8 -12 17 -12 58 -1 51 14 118 50 93 50 -8 0 -22 -4
-30 -9z"/>
<path d="M1988 2093 c7 -3 16 -2 19 1 4 3 -2 6 -13 5 -11 0 -14 -3 -6 -6z"/>
<path d="M2038 2083 c7 -3 16 -2 19 1 4 3 -2 6 -13 5 -11 0 -14 -3 -6 -6z"/>
<path d="M2088 2073 c6 -2 18 -2 25 0 6 3 1 5 -13 5 -14 0 -19 -2 -12 -5z"/>
<path d="M2109 1910 c-33 -19 -199 -34 -231 -21 -36 14 -35 6 2 -25 16 -14 35
-40 42 -59 18 -52 41 -54 91 -7 23 22 60 56 82 75 39 34 47 55 14 37z"/>
<path d="M3083 1853 c9 -2 23 -2 30 0 6 3 -1 5 -18 5 -16 0 -22 -2 -12 -5z"/>
<path d="M3907 1823 c-4 -3 -7 -13 -7 -21 0 -12 3 -12 15 -2 8 7 15 16 15 21
0 11 -14 12 -23 2z"/>
<path d="M4013 1756 c-22 -15 -32 -30 -35 -53 -7 -60 9 -58 41 7 17 35 30 64
29 65 -2 2 -17 -7 -35 -19z"/>
<path d="M1490 1737 c0 -8 7 -17 15 -21 8 -3 15 -2 15 3 0 5 -7 14 -15 21 -12
10 -15 10 -15 -3z"/>
<path d="M3020 1568 c-14 -6 -47 -12 -75 -13 -27 0 -59 -6 -70 -13 -17 -10
-14 -11 20 -7 79 10 144 7 157 -6 20 -21 38 -67 38 -94 0 -30 7 -31 35 -5 12
11 32 23 45 25 13 3 33 13 44 24 27 27 9 47 -55 60 -28 6 -63 18 -79 26 -16 8
-30 15 -32 14 -2 0 -14 -5 -28 -11z"/>
<path d="M2790 1505 c-16 -19 -3 -19 30 0 24 13 24 14 4 15 -12 0 -27 -7 -34
-15z"/>
<path d="M3310 1480 c14 -11 36 -29 50 -40 14 -11 30 -20 37 -20 6 0 17 -15
24 -33 17 -47 43 -45 34 2 -10 61 -16 71 -36 71 -11 0 -45 9 -77 20 -57 19
-57 19 -32 0z"/>
<path d="M4093 1367 c-29 -33 -61 -112 -50 -123 8 -9 88 127 85 143 -2 12 -11
7 -35 -20z"/>
<path d="M3130 1096 c0 -15 24 -28 34 -19 5 6 -18 33 -28 33 -3 0 -6 -6 -6
-14z"/>
<path d="M3320 1005 c-1 -5 -3 -29 -6 -51 -5 -40 -5 -42 26 -46 38 -6 46 5 23
28 -10 10 -18 20 -19 23 -2 15 -23 55 -24 46z"/>
</g>
</svg>
